<?xml version="1.0" encoding="UTF-8"?>
<svg id="Layer_2" data-name="Layer 2" xmlns="http://www.w3.org/2000/svg" viewBox="0 0 558.31 159.09">
  <defs>
    <style>
      .cls-1 {
        fill: #fff;
      }

      .cls-2 {
        fill: #bfd732;
      }
    </style>
  </defs>
  <g id="Layer_1-2" data-name="Layer 1">
    <g>
      <path class="cls-1" d="M14.4,119.86v-37.26s-14.4,0-14.4,0v-19.08c7.95,0,14.4-6.45,14.4-14.4v-4.86s21.78,0,21.78,0c0,6.88-3.43,13.3-9.14,17.14l-3.16,2.12h.35s11.95,0,11.95,0h40.5s0,19.08,0,19.08h-40.5s0,34.92,0,34.92c0,16.02,5.4,22.14,19.26,22.14,6.48,0,14.22-1.44,23.04-4.14v19.44c-8.64,2.7-18,4.14-27,4.14-25.74,0-37.08-11.88-37.08-39.24Z"/>
      <path class="cls-1" d="M89.91,63.52h21.78s0,93.05,0,93.05h-21.78s0-93.05,0-93.05Z"/>
      <path class="cls-1" d="M227.8,133.72c0-14.04,7.38-30.42,18.54-43.92-3.96-8.1-8.64-16.92-14.04-26.28h22.5s5.76,12.24,5.76,12.24c11.16-9,24.12-14.76,36.72-14.76,14.4,0,23.22,8.46,23.22,21.6,0,14.4-8.64,24.3-21.6,34.92l-12.96-13.68c8.28-6.3,12.42-12.42,12.42-18.36,0-4.14-2.16-6.3-6.66-6.3-7.2,0-16.02,4.86-24.12,12.42,5.76,13.86,9.9,27.36,9.9,38.7,0,18.36-8.28,28.8-26.28,28.8-14.04,0-23.4-8.46-23.4-25.38ZM251.92,140.92c4.32,0,6.48-3.42,6.48-10.44,0-6.48-1.44-13.68-4.32-21.96-4.32,7.74-7.2,16.2-7.2,24.3,0,4.86,1.26,8.1,5.04,8.1Z"/>
      <path class="cls-1" d="M363.67,118.24h-15.3s0,38.34,0,38.34h-21.78s0-125.99,0-125.99l21.78-4.14v74.15s14.76,0,14.76,0c18.36,0,27.54-16.02,28.98-37.08h22.14c-1.26,23.22-11.7,39.42-33.66,44.46v.36s8.28,1.26,8.28,1.26c12.6,1.8,19.44,8.82,23.76,19.98l10.8,27h-25.02s-7.56-22.14-7.56-22.14c-4.14-11.7-14.22-16.2-27.18-16.2Z"/>
      <path class="cls-1" d="M424.12,109.96c0-29.16,20.52-48.96,51.65-48.96,31.86,0,49.5,19.62,49.5,50.58l-76.85,10.62c3.96,11.7,14.58,18.36,32.76,18.36,12.42,0,24.84-2.7,37.26-7.2v18.72c-11.7,4.5-23.04,7.02-38.7,7.02-35.1,0-55.61-20.34-55.61-49.14ZM503.31,98.8c-1.62-10.8-9.54-19.26-26.82-19.26-19.08,0-29.16,9.72-30.06,27.18l56.88-7.92Z"/>
      <path class="cls-1" d="M536.53,30.59l21.78-4.14v130.13s-21.78,0-21.78,0V30.59Z"/>
      <path class="cls-1" d="M154,157.18c-3.56-.03-7.22-.49-10.89-1.37-11.72-2.82-18.67-9.76-20.65-20.65-2.01-11.04,1.95-20.25,11.75-27.38,2.28-1.66,5.28-3.08,8.92-4.23,6.85-2.16,13.94-3.21,21.66-3.21,5.34,0,10.85.5,16.83,1.53.81.14,1.63.27,2.53.42l2.61.43.13-1.19c.86-7.82-2.89-13.84-10.03-16.11-3.38-1.07-7.21-1.64-11.4-1.67-1.13,0-2.26-.01-3.39-.01-5.84,0-11.78.12-17.52.23-2.9.06-5.79.12-8.69.16-.51,0-1.03.01-1.54.01h-1.46c-.24-8.57-.37-13.87-.5-20.6,3.87-.18,17.75-.63,30.1-.63,3.93,0,7.37.05,10.23.14,20.54.66,37.15,17.49,37.82,38.33.15,4.57.14,5.79.13,7.08v1.74s.71.28.71.28c2.61,1.04,9.51,4.64,13.9,8.83-2.44,4.29-5.37,9.51-7.93,14.08l-8.56-5.52-.56,1.13c-.09.18-.19.34-.26.48-.23.4-.63,1.08-.13,1.74,2.51,3.36,2.62,4.81,2.62,4.83h0s-.03,13.63-.03,19.03c-1.81,0-4.82-.06-8.01-.12-3.59-.07-7.3-.14-9.81-.14-.25,0-.49,0-.72,0-.45-1.3-1.13-3.64-1.69-5.59-1.19-4.1-1.39-4.71-1.65-5.05l-.73-.94-.9.78c-.17.15-.35.29-.52.44-.41.33-.83.68-1.22,1.1-7.45,7.93-17.16,11.63-30.56,11.63h-.57ZM164.16,117.29c-3.42,0-6.84.36-10.18,1.07-3.57.76-6.46,2.69-8.35,5.58-1.88,2.87-2.37,6.04-1.36,8.69.97,2.56,3.22,4.43,6.31,5.26,2.63.71,5.33,1.09,7.79,1.09h0c.97,0,1.92-.06,2.83-.17,8.5-1.08,16.14-5.49,23.37-13.47.42-.46.61-1.02.76-1.46.04-.13.09-.25.13-.36l.27-.62-.41-.53c-.09-.12-.17-.24-.23-.34-.21-.32-.46-.73-.98-.92-6.82-2.53-13.54-3.81-19.96-3.81Z"/>
      <path class="cls-2" d="M65.69,27.7c4.29-.65,8.6-1.19,12.87-1.97,12.59-2.32,18.86-7.23,21.32-22.58.16-1.02.36-2.03,1.13-3.15.23.78.48,1.56.67,2.35.75,3.09,1.26,6.26,2.27,9.27,2.41,7.18,7.69,11.4,14.87,13.12,4.64,1.12,9.41,1.67,14.13,2.47.99.17,2,.27,3.05,1.08-1.51.23-3.04.43-4.54.7-4.7.87-9.47,1.47-14.07,2.72-7.24,1.97-11.84,6.92-13.95,14.08-.79,2.67-1.2,5.44-1.81,8.17-.13.57-.35,1.12-.82,2.61-.46-1.67-.67-2.37-.84-3.08-.67-2.84-1.15-5.74-2.02-8.52-2.58-8.25-8.77-12.42-16.8-14.19-3.76-.83-7.61-1.22-11.41-1.82-1.38-.22-2.76-.47-4.14-.71.03-.18.06-.37.09-.55Z"/>
    </g>
  </g>
</svg>