<svg width="300" height="200" viewBox="0 0 300 200" xmlns="http://www.w3.org/2000/svg">
  <defs>
    <linearGradient id="bgGradient" x1="0%" y1="0%" x2="100%" y2="100%">
      <stop offset="0%" style="stop-color:#607D8B;stop-opacity:1" />
      <stop offset="100%" style="stop-color:#455A64;stop-opacity:1" />
    </linearGradient>
    <linearGradient id="textGradient" x1="0%" y1="0%" x2="100%" y2="0%">
      <stop offset="0%" style="stop-color:#FFFFFF;stop-opacity:1" />
      <stop offset="100%" style="stop-color:#F8F9FA;stop-opacity:1" />
    </linearGradient>
  </defs>
  
  <!-- Background -->
  <rect width="300" height="200" fill="url(#bgGradient)" rx="12"/>
  
  <!-- Print layout -->
  <g transform="translate(20, 20)">
    <!-- Car catalog -->
    <rect x="0" y="0" width="100" height="120" fill="#FFFFFF" rx="4" stroke="#E0E0E0" stroke-width="1"/>
    <text x="50" y="20" text-anchor="middle" font-family="Arial, sans-serif" font-size="14" font-weight="bold" fill="#607D8B">AUTO ELITE</text>
    <text x="50" y="35" text-anchor="middle" font-family="Arial, sans-serif" font-size="10" fill="#666">Каталог автомобилей</text>
    
    <!-- Car illustration -->
    <g transform="translate(25, 45)">
      <!-- Car body -->
      <rect x="0" y="15" width="50" height="12" fill="#E0E0E0" rx="6"/>
      <rect x="5" y="10" width="40" height="8" fill="#E0E0E0" rx="4"/>
      
      <!-- Wheels -->
      <circle cx="12" cy="27" r="4" fill="#333"/>
      <circle cx="38" cy="27" r="4" fill="#333"/>
      
      <!-- Windows -->
      <rect x="8" y="12" width="8" height="6" fill="#87CEEB" rx="1"/>
      <rect x="34" y="12" width="8" height="6" fill="#87CEEB" rx="1"/>
    </g>
    
    <!-- Price list -->
    <text x="50" y="75" text-anchor="middle" font-family="Arial, sans-serif" font-size="10" font-weight="bold" fill="#607D8B">ЦЕНЫ ОТ:</text>
    <text x="50" y="85" text-anchor="middle" font-family="Arial, sans-serif" font-size="12" fill="#333">1,500,000 ₽</text>
    <text x="50" y="95" text-anchor="middle" font-family="Arial, sans-serif" font-size="8" fill="#666">Кредит 0%</text>
    <text x="50" y="105" text-anchor="middle" font-family="Arial, sans-serif" font-size="8" fill="#666">Трейд-ин</text>
    
    <!-- Brochure -->
    <rect x="120" y="0" width="70" height="90" fill="#FFFFFF" rx="4" stroke="#E0E0E0" stroke-width="1"/>
    <text x="155" y="15" text-anchor="middle" font-family="Arial, sans-serif" font-size="12" font-weight="bold" fill="#607D8B">УСЛУГИ</text>
    <text x="130" y="30" font-family="Arial, sans-serif" font-size="8" fill="#333">• Продажа новых авто</text>
    <text x="130" y="40" font-family="Arial, sans-serif" font-size="8" fill="#333">• Продажа с пробегом</text>
    <text x="130" y="50" font-family="Arial, sans-serif" font-size="8" fill="#333">• Кредитование</text>
    <text x="130" y="60" font-family="Arial, sans-serif" font-size="8" fill="#333">• Страхование</text>
    <text x="130" y="70" font-family="Arial, sans-serif" font-size="8" fill="#333">• Сервисное обслуживание</text>
    <text x="130" y="80" font-family="Arial, sans-serif" font-size="8" fill="#333">• Трейд-ин</text>
    
    <!-- Outdoor banner -->
    <rect x="210" y="0" width="70" height="100" fill="#FFFFFF" rx="4" stroke="#E0E0E0" stroke-width="1"/>
    <text x="245" y="20" text-anchor="middle" font-family="Arial, sans-serif" font-size="16" font-weight="bold" fill="#607D8B">AUTO</text>
    <text x="245" y="35" text-anchor="middle" font-family="Arial, sans-serif" font-size="16" font-weight="bold" fill="#607D8B">ELITE</text>
    
    <!-- Car icon -->
    <g transform="translate(225, 50)">
      <rect x="0" y="0" width="20" height="8" fill="#E0E0E0" rx="4"/>
      <rect x="2" y="-2" width="16" height="6" fill="#E0E0E0" rx="3"/>
      <circle cx="5" cy="8" r="2" fill="#333"/>
      <circle cx="15" cy="8" r="2" fill="#333"/>
    </g>
    
    <!-- Contact info -->
    <text x="245" y="75" text-anchor="middle" font-family="Arial, sans-serif" font-size="8" fill="#666">+7 (999) 123-45-67</text>
    <text x="245" y="85" text-anchor="middle" font-family="Arial, sans-serif" font-size="8" fill="#666">www.auto-elite.ru</text>
    <text x="245" y="95" text-anchor="middle" font-family="Arial, sans-serif" font-size="8" fill="#666">ул. Автомобильная, 1</text>
  </g>
  
  <!-- Text -->
  <text x="150" y="190" text-anchor="middle" font-family="Arial, sans-serif" font-size="14" font-weight="bold" fill="url(#textGradient)">
    AutoElite
  </text>
  
  <!-- Decorative elements -->
  <circle cx="25" cy="25" r="6" fill="#FFFFFF" opacity="0.3"/>
  <circle cx="275" cy="25" r="8" fill="#FFFFFF" opacity="0.3"/>
</svg> 